<svg data-v-423bf9ae="" xmlns="http://www.w3.org/2000/svg" viewBox="0 0 346.65988412228177 60" class="font"><!----><!----><defs data-v-423bf9ae=""><linearGradient data-v-423bf9ae="" gradientTransform="rotate(25)" id="f10ea198-0345-4c9a-b8ec-3003c5690178" x1="0%" y1="0%" x2="100%" y2="0%"><stop data-v-423bf9ae="" offset="0%" style="stop-color: rgb(140, 72, 210); stop-opacity: 1;"></stop><stop data-v-423bf9ae="" offset="100%" style="stop-color: rgb(207, 112, 90); stop-opacity: 1;"></stop></linearGradient></defs><g data-v-423bf9ae="" id="5e166946-0a17-4197-8730-6b08a4015427" fill="url(#f10ea198-0345-4c9a-b8ec-3003c5690178)" transform="matrix(6.091370322469708,0,0,6.091370322469708,0.30456841805042245,-17.60405989548893)"><path d="M2.73 12.61L-0.05 5.78L1.76 5.78L3.42 10.45L5.08 5.78L6.89 5.78L4.10 12.61L2.73 12.61ZM10.47 12.74Q9.44 12.74 8.64 12.26Q7.84 11.78 7.40 10.96Q6.97 10.14 6.97 9.17L6.97 9.17Q6.97 8.21 7.40 7.40Q7.84 6.59 8.64 6.11Q9.44 5.63 10.47 5.63L10.47 5.63Q11.49 5.63 12.29 6.11Q13.09 6.59 13.53 7.40Q13.97 8.21 13.97 9.17L13.97 9.17Q13.97 10.14 13.53 10.96Q13.09 11.78 12.29 12.26Q11.49 12.74 10.47 12.74L10.47 12.74ZM10.47 11.31Q11.07 11.31 11.46 11.02Q11.86 10.73 12.04 10.24Q12.23 9.76 12.23 9.17L12.23 9.17Q12.23 8.26 11.80 7.67Q11.36 7.08 10.47 7.08L10.47 7.08Q9.86 7.08 9.47 7.36Q9.07 7.64 8.89 8.11Q8.70 8.59 8.70 9.17L8.70 9.17Q8.70 9.76 8.89 10.24Q9.07 10.73 9.47 11.02Q9.86 11.31 10.47 11.31L10.47 11.31ZM15.32 12.61L15.32 5.78L16.95 5.78L16.95 6.92Q17.16 6.32 17.67 5.98Q18.18 5.63 18.78 5.63L18.78 5.63Q19.13 5.63 19.46 5.76Q19.79 5.88 20.03 6.13L20.03 6.13L19.27 7.49Q18.92 7.26 18.53 7.26L18.53 7.26Q18.12 7.26 17.75 7.52Q17.38 7.79 17.16 8.34Q16.93 8.89 16.93 9.72L16.93 9.72L16.93 12.61L15.32 12.61ZM23.63 12.74Q22.96 12.74 22.47 12.50Q21.99 12.25 21.73 11.80Q21.48 11.34 21.48 10.72L21.48 10.72L21.48 7.17L20.38 7.17L20.38 5.78L21.51 5.78L21.51 4.08L23.13 2.89L23.13 5.78L24.86 5.78L24.86 7.17L23.13 7.17L23.13 10.42Q23.13 10.89 23.34 11.08Q23.54 11.27 23.91 11.27L23.91 11.27Q24.14 11.27 24.40 11.20Q24.65 11.13 24.86 11.03L24.86 11.03L24.86 12.54Q24.64 12.62 24.30 12.68Q23.95 12.74 23.63 12.74L23.63 12.74ZM29.17 12.74Q28.04 12.74 27.26 12.26Q26.48 11.77 26.10 10.97Q25.71 10.17 25.71 9.21L25.71 9.21Q25.71 8.29 26.08 7.46Q26.45 6.64 27.20 6.14Q27.96 5.63 29.06 5.63L29.06 5.63Q30.18 5.63 30.89 6.15Q31.60 6.67 31.91 7.45Q32.22 8.23 32.22 9.08L32.22 9.08Q32.22 9.28 32.21 9.47Q32.19 9.66 32.16 9.73L32.16 9.73L27.47 9.73Q27.71 11.23 29.18 11.23L29.18 11.23Q29.67 11.23 30.07 11.06Q30.47 10.89 30.82 10.51L30.82 10.51L31.97 11.51Q31.41 12.13 30.72 12.44Q30.03 12.74 29.17 12.74L29.17 12.74ZM27.47 8.53L30.58 8.53Q30.50 7.81 30.10 7.42Q29.70 7.03 29.05 7.03L29.05 7.03Q27.75 7.03 27.47 8.53L27.47 8.53ZM32.59 12.61L34.92 9.16L32.59 5.78L34.62 5.78L36.03 8.03L37.45 5.78L39.49 5.78L37.14 9.16L39.49 12.61L37.45 12.61L36.03 10.31L34.62 12.61L32.59 12.61ZM45.78 12.74Q45.08 12.74 44.51 12.48Q43.95 12.22 43.62 11.71Q43.30 11.20 43.30 10.51L43.30 10.51Q43.30 9.46 44.03 9.00Q44.77 8.53 46.02 8.53L46.02 8.53L47.80 8.53Q47.80 7.87 47.45 7.48Q47.10 7.09 46.45 7.09L46.45 7.09Q45.90 7.09 45.50 7.36Q45.09 7.63 44.84 8.05L44.84 8.05L43.57 7.13Q44.09 6.41 44.79 6.02Q45.48 5.63 46.44 5.63L46.44 5.63Q47.35 5.63 48.02 5.99Q48.69 6.34 49.04 6.99Q49.39 7.63 49.39 8.46L49.39 8.46L49.39 12.61L48.02 12.61L47.91 11.63Q47.49 12.24 46.96 12.49Q46.44 12.74 45.78 12.74L45.78 12.74ZM46.02 11.33Q46.48 11.33 46.89 11.11Q47.29 10.89 47.54 10.52Q47.78 10.16 47.80 9.73L47.80 9.73L46.12 9.73Q45.58 9.73 45.29 9.97Q45.01 10.21 45.01 10.56L45.01 10.56Q45.01 10.91 45.27 11.12Q45.54 11.33 46.02 11.33L46.02 11.33ZM51.13 4.48L51.13 2.95L52.86 2.95L52.86 4.48L51.13 4.48ZM51.17 12.61L51.17 5.78L52.82 5.78L52.82 12.61L51.17 12.61ZM55.19 12.61L55.19 10.80L56.86 10.80L56.86 12.61L55.19 12.61Z"></path></g><!----><!----></svg>